/* XPM */
static const char * add_xpm[] = {
"24 24 74 1",
" 	c None",
".	c #294766",
"+	c #0D335A",
"@	c #000000",
"#	c #32739D",
"$	c #80ADCF",
"%	c #97BFD8",
"&	c #DEECF7",
"*	c #010101",
"=	c #445E79",
"-	c #324D6B",
";	c #0B2C4E",
">	c #0C2E51",
",	c #19395A",
"'	c #95BBD6",
")	c #A8C6DD",
"!	c #FCFBFC",
"~	c #3A5571",
"{	c #92B7D1",
"]	c #D9E9F6",
"^	c #FDFAFD",
"/	c #C0D9ED",
"(	c #A7CFE6",
"_	c #58B3D9",
":	c #DBEAF2",
"<	c #324E6B",
"[	c #CCDDEB",
"}	c #8EC1D9",
"|	c #BCDCEB",
"1	c #CEE4F1",
"2	c #B4D7EB",
"3	c #7ABBDD",
"4	c #6AB2D7",
"5	c #0D97CA",
"6	c #0D8AC4",
"7	c #2F4C6A",
"8	c #E0E8F1",
"9	c #7FB3D4",
"0	c #3DAAD2",
"a	c #5EB2D5",
"b	c #43AED6",
"c	c #2395CA",
"d	c #0E7DB7",
"e	c #0E7CB5",
"f	c #0E88C1",
"g	c #BBD8EA",
"h	c #DCEBF7",
"i	c #1A395B",
"j	c #DFE8F4",
"k	c #7CBEDD",
"l	c #0E80B5",
"m	c #0E76A7",
"n	c #0E7BAD",
"o	c #0D82B8",
"p	c #0D81BE",
"q	c #47CCE8",
"r	c #1C91C1",
"s	c #105687",
"t	c #D2E1EF",
"u	c #8EC3E1",
"v	c #20AFD3",
"w	c #3FBFDA",
"x	c #46C9E5",
"y	c #26B1D3",
"z	c #14ADD8",
"A	c #1694CF",
"B	c #1E679A",
"C	c #145A8B",
"D	c #115C90",
"E	c #136192",
"F	c #0F80B4",
"G	c #0E9DCB",
"H	c #030203",
"I	c #F8F8F8",
"                        ",
"                        ",
"                        ",
"           .            ",
"           +@           ",
"           +#@          ",
"           +$#@         ",
"           +%&#*        ",
"    =-;>>>,+')!#@       ",
"    ~{]^^^^/(_:!#@      ",
"    <[}|123456_:!#@     ",
"    7890ab5cdef_gh#@    ",
"    ijklmnofepp_qrs@    ",
"    ;tuvwxyzzAzqrs@     ",
"    >BCCCDEFpzqrs@      ",
"    >@@@@@@+GqrsH       ",
"           +rrsH        ",
"           +#s@         ",
"           +s@   I      ",
"           +@           ",
"           +            ",
"                        ",
"                        ",
"                        "};
