/* XPM */
static const char * wiz_xpm[] = {
"32 32 216 2",
"  	c None",
". 	c #72FDFF",
"+ 	c #A0FFFF",
"@ 	c #60FBFF",
"# 	c #51F9FF",
"$ 	c #9BFFFF",
"% 	c #97FFFF",
"& 	c #58F8FF",
"* 	c #2DE7FF",
"= 	c #A5FEFF",
"- 	c #B0FFFF",
"; 	c #94FBFF",
"> 	c #08C5FF",
", 	c #009DFF",
"' 	c #008EFF",
") 	c #00A1FF",
"! 	c #0098FF",
"~ 	c #57EFFF",
"{ 	c #ADFFFF",
"] 	c #ACFFFF",
"^ 	c #4DEBFF",
"/ 	c #1BD2FF",
"( 	c #54E2FF",
"_ 	c #6BEAFF",
": 	c #4DDFFF",
"< 	c #09D8FF",
"[ 	c #00A2FF",
"} 	c #00B7FF",
"| 	c #00A7FF",
"1 	c #009EFF",
"2 	c #00EDFF",
"3 	c #30D4FF",
"4 	c #61E6FF",
"5 	c #5EE4FF",
"6 	c #2CD2FF",
"7 	c #10DAFF",
"8 	c #28BDFF",
"9 	c #38C6FF",
"0 	c #22B9FF",
"a 	c #08E6FF",
"b 	c #00C8FF",
"c 	c #00BAFF",
"d 	c #00AAFF",
"e 	c #10BCFF",
"f 	c #32C1FF",
"g 	c #31C0FF",
"h 	c #0FBEFF",
"i 	c #00AFFF",
"j 	c #04E7FF",
"k 	c #00D5FF",
"l 	c #01D3FF",
"m 	c #00ACFF",
"n 	c #00D4FF",
"o 	c #00DFFF",
"p 	c #00C9FF",
"q 	c #009FFF",
"r 	c #00D1FF",
"s 	c #00B9FF",
"t 	c #00DAFF",
"u 	c #00DCFF",
"v 	c #00BFFF",
"w 	c #05EAFF",
"x 	c #19EFFF",
"y 	c #10EAFF",
"z 	c #06F0FF",
"A 	c #01ECFF",
"B 	c #0AEAFF",
"C 	c #02E8FF",
"D 	c #13EEFF",
"E 	c #0DEDFF",
"F 	c #03E9FF",
"G 	c #07EBFF",
"H 	c #00C2FF",
"I 	c #00E9FF",
"J 	c #00CDFF",
"K 	c #00D7FF",
"L 	c #02E4FF",
"M 	c #2DEFFF",
"N 	c #25F0FF",
"O 	c #5AF2FF",
"P 	c #94F6FF",
"Q 	c #8DF5FF",
"R 	c #3FF1FF",
"S 	c #2CF0FF",
"T 	c #16ECFF",
"U 	c #00DDFF",
"V 	c #00C1FF",
"W 	c #00C6FF",
"X 	c #00D9FF",
"Y 	c #11FCFF",
"Z 	c #63F5FF",
"` 	c #17F4FF",
" .	c #D3FCFF",
"..	c #FFFFFF",
"+.	c #FCFFFF",
"@.	c #A4F8FF",
"#.	c #1CF3FF",
"$.	c #4BF7FF",
"%.	c #00EBFF",
"&.	c #00C3FF",
"*.	c #00D0FF",
"=.	c #00BDFF",
"-.	c #00E8FF",
";.	c #0EEAFF",
">.	c #4EF4FF",
",.	c #53F7FF",
"'.	c #F6FEFF",
").	c #21F4FF",
"!.	c #4AF6FF",
"~.	c #00D8FF",
"{.	c #00F3FF",
"].	c #00E2FF",
"^.	c #03EEFF",
"/.	c #07EEFF",
"(.	c #79F7FF",
"_.	c #F5FEFF",
":.	c #4DF3FF",
"<.	c #15F0FF",
"[.	c #01E3FF",
"}.	c #05EDFF",
"|.	c #27F3FF",
"1.	c #C8FBFF",
"2.	c #FAFFFF",
"3.	c #B1F8FF",
"4.	c #45F1FF",
"5.	c #00A5FF",
"6.	c #02BAFF",
"7.	c #00D6FF",
"8.	c #06E7FF",
"9.	c #3BF5FF",
"0.	c #1AF3FF",
"a.	c #77F5FF",
"b.	c #79F4FF",
"c.	c #25F2FF",
"d.	c #10F3FF",
"e.	c #00E5FF",
"f.	c #56FBFF",
"g.	c #6FFDFF",
"h.	c #01E4FF",
"i.	c #1BFBFF",
"j.	c #2CF5FF",
"k.	c #03ECFF",
"l.	c #05ECFF",
"m.	c #23F7FF",
"n.	c #0CFDFF",
"o.	c #19D2FF",
"p.	c #4BF6FF",
"q.	c #2FEBFF",
"r.	c #89F9FF",
"s.	c #AFFFFF",
"t.	c #AAFEFF",
"u.	c #28E4FF",
"v.	c #00E6FF",
"w.	c #00F6FF",
"x.	c #00EFFF",
"y.	c #00E1FF",
"z.	c #2AF2FF",
"A.	c #B2FEFF",
"B.	c #C4FFFF",
"C.	c #7CF9FF",
"D.	c #19DBFF",
"E.	c #49DEFF",
"F.	c #69E9FF",
"G.	c #56E2FF",
"H.	c #19CEFF",
"I.	c #00CAFF",
"J.	c #00D2FF",
"K.	c #20D9FF",
"L.	c #8BF7FF",
"M.	c #99FBFF",
"N.	c #6DEFFF",
"O.	c #21DFFF",
"P.	c #1DB8FF",
"Q.	c #37C6FF",
"R.	c #2BBDFF",
"S.	c #02B3FF",
"T.	c #00ADFF",
"U.	c #00CEFF",
"V.	c #00CFFF",
"W.	c #00DEFF",
"X.	c #00C4FF",
"Y.	c #00AEFF",
"Z.	c #00B6FF",
"`.	c #00B2FF",
" +	c #0DB5FF",
".+	c #3DD3FF",
"++	c #3FD4FF",
"@+	c #34CEFF",
"#+	c #14DDFF",
"$+	c #0AEBFF",
"%+	c #08CAFF",
"&+	c #03DBFF",
"*+	c #00D3FF",
"=+	c #00ECFF",
"-+	c #0EB2FF",
";+	c #1CA9FF",
">+	c #0DBFFF",
",+	c #00B3FF",
"'+	c #00ABFF",
")+	c #00A0FF",
"!+	c #1CECFF",
"~+	c #94FEFF",
"{+	c #9FFFFF",
"]+	c #31F8FF",
"^+	c #01E8FF",
"/+	c #42E8FF",
"(+	c #60F0FF",
"_+	c #26D1FF",
":+	c #5CE4FF",
"<+	c #61E5FF",
"[+	c #35D5FF",
"}+	c #05E7FF",
"|+	c #10C3FF",
"1+	c #2FBFFF",
"2+	c #13B8FF",
"3+	c #09D3FF",
"                                                                ",
"          . + @                                 # $ % &         ",
"        * = - ; > , '                       ) ! ~ { ] ^         ",
"        / ( _ : <     [ }               | 1   2 3 4 5 6         ",
"        7 8 9 0 a       b c           d         e f g h         ",
"          c i j           k b       c             l '           ",
"            m               n o   p                 q           ",
"            1                 r r                 m             ",
"              s               t u                 q             ",
"              v             w x y z             v               ",
"                v       A B C D E F G           H               ",
"                I J K L M N O P Q R S T U U   V                 ",
"                W X o Y Z `  ...+.@.#.$.  %.&.*.                ",
"            =.J     -.;.>.,.......'.).!.  ~.{.].s               ",
"          d           ^./.(......._.:.<.[.        i             ",
"        ,               }.|.1...2.3.4.I             5.          ",
"      6.7.              8.9.0.a.b.c.d.e.              [         ",
"    f.+ g.              h.i.j.k.l.m.n.].              o.p.      ",
"  q.r.s.t.u.            t ].v.w.x.y.x.o             z.A.B.C.    ",
"  D.E.F.G.H.      k p I.J.          y.b X           K.L.M.N.O.  ",
"    P.Q.R.S.T.} U.y.    V.            W.n X.Y.Z.`.T. +.+++@+#+  ",
"    $+%+&+              H             *+=+          2 -+;+>+    ",
"                        ,+            v                         ",
"                        =.            '+                        ",
"                          V           =.                        ",
"                          )+!+~+{+]+)+                          ",
"                          ^+/+] ] (+K                           ",
"                            _+:+<+[+}+                          ",
"                            |+1+f 2+                            ",
"                              < 3+                              ",
"                                                                ",
"                                                                "};
