/* XPM */
static const char * connect_established_xpm[] = {
"22 22 40 1",
" 	c None",
".	c #878787",
"+	c #FFFFFF",
"@	c #A0A0A0",
"#	c #303030",
"$	c #EEEEEE",
"%	c #EAEAEA",
"&	c #E6E6E6",
"*	c #595959",
"=	c #C7C7C7",
"-	c #E3E3E3",
";	c #DFDFDF",
">	c #E2E2E2",
",	c #B3B3B3",
"'	c #D5D5D5",
")	c #DCDCDC",
"!	c #D9D9D9",
"~	c #D6D6D6",
"{	c #CECECE",
"]	c #D4D4D4",
"^	c #3A3A3A",
"/	c #E0E0E0",
"(	c #D2D2D2",
"_	c #999999",
":	c #C3C3C3",
"<	c #AFAFAF",
"[	c #C1C1C1",
"}	c #B7B7B7",
"|	c #8E8E8E",
"1	c #FFFFC1",
"2	c #ADADAD",
"3	c #B5B5B5",
"4	c #BCBCBC",
"5	c #A5A5A5",
"6	c #9C9C9C",
"7	c #ACACAC",
"8	c #979797",
"9	c #898989",
"0	c #9A9A9A",
"a	c #888888",
"                      ",
"     ...     .+@      ",
"    .+++.   .+@#      ",
"   .+$%&+. .+@#       ",
"  *#*=&-;+.+@#        ",
" *+>#*,&-;+*#         ",
"*+$%'#*,;)!+*         ",
"*>%&-=#*@~{=+*        ",
"**]%&-=#*@~{=+*       ",
"*^*]/!(=#*_:<:^       ",
"#^^*[{=(}#*|:*^1      ",
" #^:*23=45#**^# |     ",
"  ^+@*63789#^# 1      ",
" *+@*^*60a*##1 1|1    ",
"*+@##^^*.*^#  1+1|    ",
"+@#  #^^*^1 11+++11 1 ",
"@#    #^^# | |1+1||| |",
"             1|1|1    ",
"              |1| |   ",
"                |     ",
"               1      ",
"                |     "};
