/* XPM */
static const char * info_xpm[] = {
"22 22 94 2",
"  	c None",
". 	c #000000",
"+ 	c #282C2F",
"@ 	c #232C32",
"# 	c #1B2730",
"$ 	c #16242D",
"% 	c #15212A",
"& 	c #101B23",
"* 	c #09131A",
"= 	c #0F1112",
"- 	c #8FBCDC",
"; 	c #4C799B",
"> 	c #2B353C",
", 	c #202E39",
"' 	c #1B2A36",
") 	c #192832",
"! 	c #294E66",
"~ 	c #2B5576",
"{ 	c #06121B",
"] 	c #9CC5DF",
"^ 	c #559ACA",
"/ 	c #182835",
"( 	c #05080A",
"_ 	c #010406",
": 	c #487293",
"< 	c #346685",
"[ 	c #123249",
"} 	c #1F2326",
"| 	c #2B4F6A",
"1 	c #3074A9",
"2 	c #8DB6D0",
"3 	c #407299",
"4 	c #0A1923",
"5 	c #232D34",
"6 	c #3987C4",
"7 	c #2B688E",
"8 	c #0C2537",
"9 	c #326385",
"0 	c #050F16",
"a 	c #1E2225",
"b 	c #4F93C8",
"c 	c #306B95",
"d 	c #0C2639",
"e 	c #3F6C8C",
"f 	c #2F6D9C",
"g 	c #2A4E69",
"h 	c #0F1418",
"i 	c #101417",
"j 	c #346891",
"k 	c #091B28",
"l 	c #255F88",
"m 	c #317AA8",
"n 	c #3B89C0",
"o 	c #4286BB",
"p 	c #122029",
"q 	c #31363A",
"r 	c #3276AB",
"s 	c #215172",
"t 	c #336F9E",
"u 	c #303437",
"v 	c #3787BA",
"w 	c #245373",
"x 	c #081721",
"y 	c #0A212F",
"z 	c #333638",
"A 	c #3389C6",
"B 	c #214F6C",
"C 	c #06141D",
"D 	c #2B2F32",
"E 	c #348CC9",
"F 	c #265677",
"G 	c #071620",
"H 	c #2D3032",
"I 	c #388ECB",
"J 	c #235374",
"K 	c #3376A4",
"L 	c #70A4C5",
"M 	c #3489C5",
"N 	c #275B80",
"O 	c #02080D",
"P 	c #3989C6",
"Q 	c #2D678C",
"R 	c #184263",
"S 	c #000203",
"T 	c #071822",
"U 	c #22313B",
"V 	c #182733",
"W 	c #0D171E",
"X 	c #1D2B34",
"Y 	c #72ADD3",
"Z 	c #000305",
"` 	c #0C1821",
" .	c #386485",
"..	c #05111A",
"              . + @ # $ % & *               ",
"          . = - ; > , ' ) ! ~ . {           ",
"        . ] ^ / (         _ : < [ .         ",
"        } ^ | .             . : 1 .         ",
"      . 2 3 4                 5 6 7 8       ",
"      . ^ 9 0                 a b c d       ",
"      . e f g h i             . ^ j k       ",
"        . l m n o p         q - r .         ",
"          . s c t .       u ] v w x         ",
"            . . y       z ] A B C           ",
"                      D ] E F G             ",
"                    H - I J {               ",
"                  . - ^ K .                 ",
"                  . L M N O                 ",
"                  . P Q R S                 ",
"                    . . T                   ",
"                                            ",
"                                            ",
"                    U V W                   ",
"                  X Y ^ I Z                 ",
"                  ` I  .[ .                 ",
"                    { ..O                   "};
