/* XPM */
static const char * linked_xpm[] = {
"20 20 32 1",
" 	c None",
".	c #000000",
"+	c #C4C4C4",
"@	c #9E9E9E",
"#	c #C6C6C6",
"$	c #888888",
"%	c #A2A2A2",
"&	c #CACACA",
"*	c #F5F5F5",
"=	c #A6A6A6",
"-	c #686868",
";	c #CCCCCC",
">	c #F4F4F4",
",	c #8E8E8E",
"'	c #787878",
")	c #DCDCDC",
"!	c #EFEFEF",
"~	c #AAAAAA",
"{	c #F9F9F9",
"]	c #A9A9A9",
"^	c #EAEAEA",
"/	c #616161",
"(	c #C7C7C7",
"_	c #A7A7A7",
":	c #C3C3C3",
"<	c #A3A3A3",
"[	c #BEBEBE",
"}	c #929292",
"|	c #9D9D9D",
"1	c #B8B8B8",
"2	c #D7D7D7",
"3	c #959595",
"                    ",
"                    ",
"                    ",
"     .+...@.        ",
"     .#.$.%.        ",
"     .&.*.=.        ",
"     .-;>,'.        ",
"      ..)...        ",
"       .;.          ",
"      ..;..         ",
"     .$!~;'.        ",
"     .{.,.].        ",
"     .^./.].        ",
"     .(..._.        ",
"     .:...<.        ",
"     .[.}.|.        ",
"     .1.2.3.        ",
"                    ",
"                    ",
"                    "};
