/* XPM */
static const char * locked_xpm[] = {
"16 16 59 1",
" 	c None",
".	c #676767",
"+	c #FFFFFF",
"@	c #DDDDDD",
"#	c #4A4A4A",
"$	c #494949",
"%	c #BDBDBD",
"&	c #9C9C9C",
"*	c #3A3A3A",
"=	c #D1D1D1",
"-	c #8C8C8C",
";	c #757575",
">	c #7A7A7A",
",	c #9B9B9B",
"'	c #888888",
")	c #7B7B7B",
"!	c #6D6D6D",
"~	c #616161",
"{	c #6B6B6B",
"]	c #A8A8A8",
"^	c #B5B5B5",
"/	c #D2D2D2",
"(	c #E8E8E8",
"_	c #CCCCCC",
":	c #B9B9B9",
"<	c #9F9F9F",
"[	c #7D7D7D",
"}	c #3D3D3D",
"|	c #626262",
"1	c #909090",
"2	c #A1A1A1",
"3	c #D8D8D8",
"4	c #929292",
"5	c #808080",
"6	c #4E4E4E",
"7	c #565656",
"8	c #5D5D5D",
"9	c #999999",
"0	c #9A9A9A",
"a	c #BCBCBC",
"b	c #E1E1E1",
"c	c #B4B4B4",
"d	c #A9A9A9",
"e	c #777777",
"f	c #686868",
"g	c #8D8D8D",
"h	c #A3A3A3",
"i	c #DCDCDC",
"j	c #4C4C4C",
"k	c #989898",
"l	c #C6C6C6",
"m	c #767676",
"n	c #5A5A5A",
"o	c #414141",
"p	c #3B3B3B",
"q	c #424242",
"r	c #434343",
"s	c #444444",
"t	c #3E3E3E",
"                ",
"      ...       ",
"     .++@#      ",
"    .@$$$@#     ",
"   .@$   $%#    ",
"   .@$   $&*    ",
"   .=$   $-*    ",
"  .;>-,-')!~#   ",
"  {]^/(/_:<[}   ",
"  |1)2345.67*   ",
"  890abcd4ef*   ",
"  7g)hi45.67*   ",
"  jg.kl4mn$7*   ",
"  opqrstp****   ",
"                ",
"                "};
