/* XPM */
static const char * monitor_xpm[] = {
"20 20 52 1",
" 	c None",
".	c #000000",
"+	c #F5F5F5",
"@	c #7A8693",
"#	c #2B3E52",
"$	c #27384A",
"%	c #717A82",
"&	c #F1F1F1",
"*	c #929292",
"=	c #7E8B99",
"-	c #2A435D",
";	c #84919F",
">	c #21354A",
",	c #1B2B3C",
"'	c #787F86",
")	c #F2F2F2",
"!	c #313131",
"~	c #121212",
"{	c #A6A6A6",
"]	c #F6F6F6",
"^	c #344C65",
"/	c #798C9F",
"(	c #464646",
"_	c #495765",
":	c #202C39",
"<	c #EAEAEA",
"[	c #EFEFEF",
"}	c #31475E",
"|	c #797979",
"1	c #596471",
"2	c #1F2B37",
"3	c #E9E9E9",
"4	c #EDEDED",
"5	c #747474",
"6	c #212121",
"7	c #F7F7F7",
"8	c #798491",
"9	c #23384E",
"0	c #536373",
"a	c #6C7783",
"b	c #182736",
"c	c #ACB0B4",
"d	c #FAFAFA",
"e	c #EEEEEE",
"f	c #202020",
"g	c #A3A3A3",
"h	c #F8F8F8",
"i	c #929598",
"j	c #72767A",
"k	c #76787B",
"l	c #A4A4A6",
"m	c #ECECEC",
"                    ",
"                    ",
"                    ",
"                    ",
"                    ",
"                    ",
"       ......       ",
"     ..+@#$%&.      ",
"    .*+=-;>,')!     ",
"   ~{)]^/(._:<[!    ",
"   .+)+}-.|1234+.   ",
"   5677890abcdef.   ",
"     .ghijklm!.     ",
"       ......       ",
"                    ",
"                    ",
"                    ",
"                    ",
"                    ",
"                    "};
