/* XPM */
static const char * previous_xpm[] = {
"24 22 20 1",
" 	c None",
".	c #000000",
"+	c #FFFFFF",
"@	c #D6D6D6",
"#	c #F0F0F0",
"$	c #FDFDFD",
"%	c #B1B1B1",
"&	c #969696",
"*	c #696969",
"=	c #FEFEFE",
"-	c #A8A8A8",
";	c #888888",
">	c #5E5E5E",
",	c #F7F7F7",
"'	c #666666",
")	c #ACACAC",
"!	c #A0A0A0",
"~	c #AEAEAE",
"{	c #3B3B3B",
"]	c #4C4C4C",
"                        ",
"                        ",
"........+               ",
"........+   .........   ",
"+++++++++   .@@###@.    ",
"..........$ .%&*&@.     ",
"++++++++++= .-;>&,.     ",
"....+       .-;;'),.    ",
"+++++       .!~{~'),.   ",
".......+    .~..{~'),.  ",
"++++++++    ..  .{~].   ",
"            .    .{.    ",
"..........$       .     ",
"..........+             ",
"+++++++++++             ",
"....+                   ",
"+++++                   ",
"......+                 ",
"+++++++                 ",
"........+               ",
"+++++++++               ",
"                        "};
