/* XPM */
static const char * remove_xpm[] = {
"24 24 103 2",
"  	c None",
". 	c #173F59",
"+ 	c #0B2D50",
"@ 	c #0D335A",
"# 	c #284469",
"$ 	c #6E92B7",
"% 	c #476088",
"& 	c #7F98BA",
"* 	c #DEECF7",
"= 	c #2C5783",
"- 	c #8097B9",
"; 	c #FCFBFC",
"> 	c #A8C6DD",
", 	c #106093",
"' 	c #040304",
") 	c #344F6D",
"! 	c #22405F",
"~ 	c #000207",
"{ 	c #7B93B4",
"] 	c #E0EDF3",
"^ 	c #58B3D9",
"/ 	c #259ACA",
"( 	c #3E8DBF",
"_ 	c #97C7E0",
": 	c #E3F1F8",
"< 	c #FCF9FC",
"[ 	c #CBE6F4",
"} 	c #2B4B70",
"| 	c #040B19",
"1 	c #82A0C1",
"2 	c #DBEAF2",
"3 	c #70C3DF",
"4 	c #1797C6",
"5 	c #0F88C0",
"6 	c #339FCC",
"7 	c #95CEE8",
"8 	c #C3E4F2",
"9 	c #CAE8F3",
"0 	c #A7D9EE",
"a 	c #63A8D0",
"b 	c #245B89",
"c 	c #040F1F",
"d 	c #738EB2",
"e 	c #DCEBF7",
"f 	c #BBD8EA",
"g 	c #78C2E1",
"h 	c #19A0CC",
"i 	c #0D81BE",
"j 	c #319CCE",
"k 	c #81BEDA",
"l 	c #98C9E3",
"m 	c #7AB9DD",
"n 	c #3F92C2",
"o 	c #0F5382",
"p 	c #050E20",
"q 	c #030712",
"r 	c #105687",
"s 	c #1792C0",
"t 	c #21B5DA",
"u 	c #15A9DA",
"v 	c #0D8AC4",
"w 	c #0F81BC",
"x 	c #1183B8",
"y 	c #107CAF",
"z 	c #117EB0",
"A 	c #117FB2",
"B 	c #1382B6",
"C 	c #105285",
"D 	c #0F8CC6",
"E 	c #3BC3E0",
"F 	c #1694CF",
"G 	c #149ED1",
"H 	c #26B1D3",
"I 	c #45C3DE",
"J 	c #42C5DD",
"K 	c #20AFD3",
"L 	c #15A5D4",
"M 	c #040C1B",
"N 	c #1CA0CB",
"O 	c #47CCE8",
"P 	c #14ADD8",
"Q 	c #1181B0",
"R 	c #135A8C",
"S 	c #13598E",
"T 	c #11588A",
"U 	c #105581",
"V 	c #0E3863",
"W 	c #030A16",
"X 	c #040D1B",
"Y 	c #1C91C1",
"Z 	c #106291",
"` 	c #061329",
" .	c #051124",
"..	c #081427",
"+.	c #0F1C2E",
"@.	c #071020",
"#.	c #020106",
"$.	c #106CA1",
"%.	c #10507D",
"&.	c #104873",
"*.	c #030714",
"=.	c #F8F8F8",
"-.	c #02060F",
"                                                ",
"                                                ",
"                                                ",
"                        .                       ",
"                      + @                       ",
"                    + # @                       ",
"                  + $ % @                       ",
"                + & * = @                       ",
"              + - ; > , @ ' ) ! + + + ~         ",
"            + { ; ] ^ / ( _ : < < [ } |         ",
"          + 1 < 2 3 4 5 6 7 8 9 0 a b c         ",
"        + d e f g h 5 i 5 j k l m n o p         ",
"        q r s t u v i i w x y z A B C c         ",
"          | r D E u F G H I J I K L C c         ",
"            M r N O P Q Q R S S T U V W         ",
"              X r Y E Z @ `  . ...+.@.#.        ",
"                M r $.%.@                       ",
"                  M r &.@                       ",
"                    *.@ @         =.            ",
"                      q @                       ",
"                        -.                      ",
"                                                ",
"                                                ",
"                                                "};
